<svg width="234" height="58" viewBox="0 0 234 58" fill="none" xmlns="http://www.w3.org/2000/svg">
<g clip-path="url(#clip0)">
<path d="M7.20923 10.2708H13.2169C15.3196 10.2708 22.8293 10.5729 22.8293 18.4271C22.8293 23.5625 19.2246 25.9792 13.2169 25.9792H1.20152V0.90625H20.7266V5.73958H7.20923V10.2708ZM7.20923 21.1458H12.0154C14.4185 21.1458 16.5212 20.5417 16.5212 18.4271C16.5212 15.4062 13.5173 15.1042 12.3158 15.1042H7.20923V21.1458Z" fill="#59595A"/>
<path d="M41.4531 0.90625H47.7612L39.6508 21.1458C37.5481 26.2812 34.8447 26.8854 31.8408 26.8854C30.6393 26.8854 29.4377 26.8854 27.9358 26.2812V21.1458C28.5366 21.4479 29.4377 21.4479 30.6393 21.4479C32.742 21.4479 33.6431 20.2396 33.9435 19.0312L24.3312 0.90625H31.5404L36.9474 13.2917L41.4531 0.90625Z" fill="#59595A"/>
<path d="M72.9936 17.2187C72.6932 21.1458 70.5905 26.8854 61.5789 26.8854C55.2709 26.8854 49.2632 23.8646 49.2632 13.8958C49.2632 0.604166 58.8755 0 61.2786 0C70.2901 0 72.3928 5.73958 72.6932 9.36458H66.9859C66.3851 5.13542 63.0809 4.83333 61.5789 4.83333C60.3774 4.83333 55.5712 5.13542 55.5712 13.5937C55.5712 18.4271 57.6739 21.75 61.8793 21.75C65.7843 21.75 66.9859 19.0312 67.2863 16.9167H72.9936V17.2187Z" fill="#59595A"/>
<path d="M23.7304 48.3333C23.43 52.2604 21.3273 58 12.3158 58C6.0077 58 0 54.9792 0 45.0104C0 31.7188 9.61232 31.1146 12.0154 31.1146C21.027 31.1146 23.1297 36.8542 23.43 40.4792H17.7227C17.122 36.25 13.8177 36.25 12.3158 36.25C11.1142 36.25 6.30809 36.5521 6.30809 45.0104C6.30809 49.8438 8.41078 53.1667 12.6162 53.1667C16.5212 53.1667 17.7227 50.4479 18.0231 48.3333H23.7304Z" fill="#59595A"/>
<path d="M25.2323 36.8542V32.0208H46.5597V36.8542H39.05V57.3958H33.0423V36.8542H25.2323Z" fill="#59595A"/>
<path d="M59.7766 32.0208L69.0886 57.3958H62.7805L61.2786 52.5625H52.267L50.4647 57.3958H44.1566L53.4685 32.0208H59.7766ZM60.077 48.3333L56.7728 38.6667L53.4685 48.3333H60.077Z" fill="#59595A"/>
<path d="M83.2067 32.0208C88.3132 32.0208 92.819 33.8333 92.819 40.1771C92.819 48.0313 86.2105 48.6354 83.2067 48.6354H77.4994V57.3958H71.4917V32.0208H83.2067ZM77.4994 43.5H82.0051C84.7086 43.5 86.2105 42.5938 86.2105 39.875C86.2105 36.5521 83.2067 36.5521 82.0051 36.5521H77.4994V43.5Z" fill="#59595A"/>
<path d="M94.3209 36.8542V32.0208H115.648V36.8542H108.139V57.3958H102.131V36.8542H94.3209Z" fill="#59595A"/>
<path d="M232.198 23.5625L207.566 0H126.763L123.759 25.375C123.458 25.9792 123.458 26.2812 123.458 26.8854V45.9167C123.458 48.0312 125.261 49.5417 127.063 49.5417H137.576C138.177 54.0729 142.082 57.6979 146.888 57.6979C151.695 57.6979 155.6 54.0729 156.2 49.5417H197.353C197.954 54.0729 201.859 57.6979 206.665 57.6979C211.471 57.6979 215.376 54.0729 215.977 49.5417H230.095C232.198 49.5417 233.7 47.7292 233.7 45.9167V26.8854C234 25.375 233.099 24.4688 232.198 23.5625ZM213.574 15.4062C212.372 14.8021 211.171 15.4062 210.57 16.6146L207.867 23.2604H198.555V11.7812H215.376L227.392 23.2604H212.973L215.076 18.125C215.376 17.2188 214.775 15.7083 213.574 15.4062ZM127.063 22.9583L128.264 11.4792H147.79V22.9583H127.063ZM151.094 11.7812H172.121V23.2604H151.094V11.7812ZM175.125 11.7812H195.851V23.2604H175.125V11.7812ZM206.365 3.02083L212.372 8.76042H128.865L129.466 3.02083H206.365ZM146.888 54.6771C143.284 54.6771 140.58 51.6562 140.58 48.3333C140.58 45.0104 143.584 41.9896 146.888 41.9896C150.193 41.9896 153.196 45.0104 153.196 48.3333C153.196 51.6562 150.493 54.6771 146.888 54.6771ZM206.665 54.6771C203.06 54.6771 200.357 51.6562 200.357 48.3333C200.357 45.0104 203.361 41.9896 206.665 41.9896C209.969 41.9896 212.973 45.0104 212.973 48.3333C212.973 51.6562 210.27 54.6771 206.665 54.6771ZM230.996 45.9167C230.996 46.2188 230.696 46.5208 230.395 46.5208H216.277C215.376 41.9896 211.772 38.6667 206.965 38.6667C202.159 38.6667 198.555 41.9896 197.653 46.5208H156.2C155.299 41.9896 151.695 38.6667 146.888 38.6667C142.082 38.6667 138.478 41.9896 137.576 46.5208H127.063C126.763 46.5208 126.462 46.2188 126.462 45.9167V26.8854C126.462 26.5833 126.763 26.2812 127.063 26.2812H209.669H209.969C210.27 26.2812 210.27 26.2812 210.57 26.2812H230.095C230.395 26.2812 230.696 26.5833 230.696 26.8854V45.9167H230.996Z" fill="#59595A"/>
</g>
<defs>
<clipPath id="clip0">
<rect width="234" height="58" fill="white"/>
</clipPath>
</defs>
</svg>
