<?xml version="1.0" encoding="iso-8859-1"?>
<!-- Generator: Adobe Illustrator 23.0.0, SVG Export Plug-In . SVG Version: 6.00 Build 0)  -->
<svg version="1.1" id="Layer_1" xmlns="http://www.w3.org/2000/svg" xmlns:xlink="http://www.w3.org/1999/xlink" x="0px" y="0px"
	 viewBox="0 0 233.759 85.483" style="enable-background:new 0 0 233.759 85.483;" xml:space="preserve">
<g>
	<g>
		<path style="fill:#FFFFFF;" d="M7.209,10.271h6.008c2.103,0,9.612,0.302,9.612,8.156c0,5.135-3.605,7.552-9.612,7.552H1.202V0.906
			h19.525V5.74H7.209V10.271z M7.209,21.146h4.806c2.403,0,4.506-0.604,4.506-2.719c0-3.021-3.004-3.323-4.205-3.323H7.209V21.146z"
			/>
		<path style="fill:#FFFFFF;" d="M41.453,0.906h6.308l-8.11,20.24c-2.103,5.135-4.806,5.74-7.81,5.74c-1.201,0-2.403,0-3.905-0.604
			v-5.135c0.601,0.302,1.502,0.302,2.703,0.302c2.103,0,3.004-1.208,3.304-2.417L24.331,0.906h7.209l5.407,12.385L41.453,0.906z"/>
		<path style="fill:#FFFFFF;" d="M72.994,17.219c-0.3,3.927-2.403,9.667-11.415,9.667c-6.308,0-12.316-3.021-12.316-12.99
			C49.263,0.604,58.875,0,61.279,0c9.012,0,11.114,5.74,11.415,9.365h-5.707c-0.601-4.229-3.905-4.531-5.407-4.531
			c-1.201,0-6.008,0.302-6.008,8.76c0,4.833,2.103,8.156,6.308,8.156c3.905,0,5.107-2.719,5.407-4.833h5.707V17.219z"/>
		<path style="fill:#FFFFFF;" d="M23.73,48.333C23.43,52.26,21.327,58,12.316,58C6.008,58,0,54.979,0,45.01
			c0-13.292,9.612-13.896,12.015-13.896c9.012,0,11.114,5.74,11.415,9.365h-5.707c-0.601-4.229-3.905-4.229-5.407-4.229
			c-1.202,0-6.008,0.302-6.008,8.76c0,4.833,2.103,8.156,6.308,8.156c3.905,0,5.106-2.719,5.407-4.833H23.73z"/>
		<path style="fill:#FFFFFF;" d="M25.232,36.854v-4.833H46.56v4.833h-7.51v20.542h-6.008V36.854H25.232z"/>
		<path style="fill:#FFFFFF;" d="M59.777,32.021l9.312,25.375H62.78l-1.502-4.833h-9.012l-1.802,4.833h-6.308l9.312-25.375H59.777z
			 M60.077,48.333l-3.304-9.667l-3.304,9.667H60.077z"/>
		<path style="fill:#FFFFFF;" d="M83.207,32.021c5.106,0,9.612,1.813,9.612,8.156c0,7.854-6.608,8.458-9.612,8.458h-5.707v8.76
			h-6.008V32.021H83.207z M77.499,43.5h4.506c2.704,0,4.205-0.906,4.205-3.625c0-3.323-3.004-3.323-4.205-3.323h-4.506V43.5z"/>
		<path style="fill:#FFFFFF;" d="M94.321,36.854v-4.833h21.327v4.833h-7.509v20.542h-6.008V36.854H94.321z"/>
		<path style="fill:#FFFFFF;" d="M232.198,23.563L207.566,0h-80.803l-3.004,25.375c-0.301,0.604-0.301,0.906-0.301,1.51v19.031
			c0,2.115,1.803,3.625,3.605,3.625h10.513c0.601,4.531,4.506,8.156,9.312,8.156c4.807,0,8.712-3.625,9.312-8.156h41.153
			c0.601,4.531,4.506,8.156,9.312,8.156s8.711-3.625,9.312-8.156h14.118c2.103,0,3.605-1.813,3.605-3.625V26.885
			C234,25.375,233.099,24.469,232.198,23.563z M213.574,15.406c-1.202-0.604-2.403,0-3.004,1.208l-2.703,6.646h-9.312V11.781h16.821
			l12.016,11.479h-14.419l2.103-5.135C215.376,17.219,214.775,15.708,213.574,15.406z M127.063,22.958l1.201-11.479h19.526v11.479
			H127.063z M151.094,11.781h21.027V23.26h-21.027V11.781z M175.125,11.781h20.726V23.26h-20.726V11.781z M206.365,3.021l6.007,5.74
			h-83.507l0.601-5.74H206.365z M146.888,54.677c-3.604,0-6.308-3.021-6.308-6.344c0-3.323,3.004-6.344,6.308-6.344
			c3.305,0,6.308,3.021,6.308,6.344C153.196,51.656,150.493,54.677,146.888,54.677z M206.665,54.677
			c-3.605,0-6.308-3.021-6.308-6.344c0-3.323,3.004-6.344,6.308-6.344s6.308,3.021,6.308,6.344
			C212.973,51.656,210.27,54.677,206.665,54.677z M230.996,45.917c0,0.302-0.3,0.604-0.601,0.604h-14.118
			c-0.901-4.531-4.505-7.854-9.312-7.854c-4.806,0-8.41,3.323-9.312,7.854H156.2c-0.901-4.531-4.505-7.854-9.312-7.854
			c-4.806,0-8.41,3.323-9.312,7.854h-10.513c-0.3,0-0.601-0.302-0.601-0.604V26.885c0-0.302,0.301-0.604,0.601-0.604h82.606h0.3
			c0.301,0,0.301,0,0.601,0h19.525c0.3,0,0.601,0.302,0.601,0.604v19.031H230.996z"/>
	</g>
</g>
<g>
	<path style="fill:#FFFFFF;" d="M1.225,71.173h9.343v11.746H8.196v-9.775H3.597v9.775H1.225V71.173z"/>
	<path style="fill:#FFFFFF;" d="M12.987,82.919V71.173h8.71v1.986h-6.338v2.604h5.897v1.979h-5.897v3.196h6.563v1.979H12.987z"/>
	<path style="fill:#FFFFFF;" d="M23.933,82.919V71.173h3.806c1.442,0,2.382,0.059,2.82,0.176c0.673,0.177,1.236,0.56,1.69,1.15
		c0.454,0.59,0.681,1.353,0.681,2.287c0,0.721-0.131,1.327-0.393,1.819c-0.262,0.491-0.594,0.877-0.998,1.157
		s-0.813,0.466-1.23,0.557c-0.566,0.112-1.386,0.169-2.46,0.169h-1.546v4.431H23.933z M26.304,73.159v3.334h1.298
		c0.935,0,1.56-0.062,1.875-0.185c0.315-0.123,0.562-0.315,0.741-0.577c0.179-0.262,0.268-0.566,0.268-0.913
		c0-0.428-0.125-0.78-0.376-1.058c-0.251-0.278-0.569-0.451-0.954-0.521c-0.283-0.053-0.852-0.08-1.707-0.08H26.304z"/>
	<path style="fill:#FFFFFF;" d="M34.878,82.919V71.173h8.71v1.986H37.25v2.604h5.897v1.979H37.25v3.196h6.563v1.979H34.878z"/>
	<path style="fill:#FFFFFF;" d="M45.342,77.118c0-1.197,0.179-2.201,0.537-3.013c0.267-0.599,0.631-1.136,1.094-1.611
		c0.462-0.475,0.968-0.827,1.519-1.058c0.731-0.31,1.576-0.465,2.532-0.465c1.731,0,3.116,0.537,4.155,1.611
		c1.039,1.073,1.558,2.566,1.558,4.479c0,1.896-0.516,3.38-1.546,4.451s-2.409,1.606-4.134,1.606c-1.747,0-3.136-0.533-4.167-1.599
		C45.858,80.455,45.342,78.987,45.342,77.118z M47.786,77.038c0,1.33,0.307,2.338,0.922,3.024c0.614,0.687,1.394,1.029,2.339,1.029
		c0.946,0,1.722-0.34,2.328-1.021c0.606-0.681,0.91-1.702,0.91-3.064c0-1.347-0.295-2.351-0.885-3.013
		c-0.59-0.662-1.375-0.994-2.352-0.994s-1.766,0.336-2.364,1.006C48.085,74.676,47.786,75.687,47.786,77.038z"/>
	<path style="fill:#FFFFFF;" d="M58.635,71.173h8.782v1.971h-6.41v2.725h3.173c0.876,0,1.603,0.106,2.18,0.32
		c0.577,0.214,1.069,0.608,1.478,1.186s0.613,1.253,0.613,2.027c0,0.796-0.206,1.478-0.617,2.043
		c-0.412,0.566-0.88,0.954-1.406,1.162c-0.526,0.208-1.275,0.313-2.248,0.313h-5.544V71.173z M61.007,80.948h2.308
		c0.737,0,1.255-0.036,1.554-0.108c0.299-0.072,0.56-0.236,0.781-0.493c0.222-0.256,0.333-0.571,0.333-0.945
		c0-0.545-0.193-0.941-0.581-1.189c-0.388-0.249-1.049-0.373-1.983-0.373h-2.412V80.948z"/>
	<path style="fill:#FFFFFF;" d="M69.901,77.118c0-1.197,0.179-2.201,0.537-3.013c0.267-0.599,0.631-1.136,1.094-1.611
		c0.462-0.475,0.968-0.827,1.519-1.058c0.731-0.31,1.576-0.465,2.532-0.465c1.731,0,3.116,0.537,4.155,1.611
		c1.039,1.073,1.558,2.566,1.558,4.479c0,1.896-0.516,3.38-1.546,4.451s-2.409,1.606-4.134,1.606c-1.747,0-3.136-0.533-4.167-1.599
		C70.417,80.455,69.901,78.987,69.901,77.118z M72.345,77.038c0,1.33,0.307,2.338,0.922,3.024c0.614,0.687,1.394,1.029,2.339,1.029
		c0.946,0,1.722-0.34,2.328-1.021c0.606-0.681,0.91-1.702,0.91-3.064c0-1.347-0.295-2.351-0.885-3.013
		c-0.59-0.662-1.375-0.994-2.352-0.994s-1.766,0.336-2.364,1.006C72.644,74.676,72.345,75.687,72.345,77.038z"/>
	<path style="fill:#FFFFFF;" d="M83.146,82.919V71.173h3.806c1.442,0,2.382,0.059,2.82,0.176c0.673,0.177,1.236,0.56,1.69,1.15
		c0.454,0.59,0.681,1.353,0.681,2.287c0,0.721-0.131,1.327-0.393,1.819c-0.262,0.491-0.594,0.877-0.998,1.157
		s-0.813,0.466-1.23,0.557c-0.566,0.112-1.386,0.169-2.46,0.169h-1.546v4.431H83.146z M85.517,73.159v3.334h1.298
		c0.935,0,1.56-0.062,1.875-0.185c0.315-0.123,0.562-0.315,0.741-0.577c0.179-0.262,0.268-0.566,0.268-0.913
		c0-0.428-0.125-0.78-0.376-1.058c-0.251-0.278-0.569-0.451-0.954-0.521c-0.283-0.053-0.852-0.08-1.707-0.08H85.517z"/>
	<path style="fill:#FFFFFF;" d="M92.681,71.173h2.652l2.74,6.098l2.339-6.098h2.476l-3.966,8.926
		c-0.433,0.967-0.873,1.702-1.322,2.207s-1.028,0.758-1.739,0.758c-0.7,0-1.248-0.046-1.643-0.137v-1.763
		c0.336,0.021,0.641,0.032,0.913,0.032c0.55,0,0.944-0.101,1.182-0.301c0.237-0.2,0.466-0.632,0.685-1.294L92.681,71.173z"/>
	<path style="fill:#FFFFFF;" d="M104.195,71.173h8.117v9.775h1.033v4.535h-1.971v-2.564h-7.396v2.564h-1.971v-4.535h0.993
		c0.486-1.005,0.807-2.171,0.962-3.498c0.155-1.327,0.232-3.006,0.232-5.036V71.173z M106.455,73.144c0,3.568-0.323,6.17-0.97,7.805
		h4.463v-7.805H106.455z"/>
	<path style="fill:#FFFFFF;" d="M114.459,77.118c0-1.197,0.179-2.201,0.537-3.013c0.267-0.599,0.631-1.136,1.094-1.611
		c0.462-0.475,0.968-0.827,1.519-1.058c0.731-0.31,1.575-0.465,2.532-0.465c1.73,0,3.115,0.537,4.154,1.611
		c1.039,1.073,1.559,2.566,1.559,4.479c0,1.896-0.516,3.38-1.547,4.451s-2.409,1.606-4.135,1.606c-1.746,0-3.135-0.533-4.166-1.599
		C114.975,80.455,114.459,78.987,114.459,77.118z M116.903,77.038c0,1.33,0.307,2.338,0.922,3.024s1.394,1.029,2.339,1.029
		s1.722-0.34,2.328-1.021c0.605-0.681,0.909-1.702,0.909-3.064c0-1.347-0.295-2.351-0.886-3.013
		c-0.59-0.662-1.374-0.994-2.352-0.994s-1.766,0.336-2.364,1.006C117.202,74.676,116.903,75.687,116.903,77.038z"/>
	<path style="fill:#FFFFFF;" d="M127.712,71.173h4.695c0.93,0,1.622,0.038,2.079,0.116c0.457,0.077,0.865,0.238,1.226,0.484
		c0.361,0.246,0.661,0.573,0.901,0.981c0.241,0.409,0.361,0.867,0.361,1.374c0,0.551-0.148,1.056-0.445,1.515
		c-0.296,0.459-0.698,0.804-1.206,1.033c0.716,0.209,1.267,0.564,1.651,1.066c0.384,0.502,0.576,1.092,0.576,1.771
		c0,0.534-0.124,1.054-0.372,1.559c-0.249,0.505-0.588,0.908-1.018,1.21c-0.431,0.302-0.961,0.487-1.591,0.557
		c-0.396,0.043-1.349,0.069-2.86,0.08h-3.998V71.173z M130.083,73.128v2.716h1.555c0.924,0,1.498-0.014,1.723-0.04
		c0.406-0.048,0.726-0.188,0.958-0.421s0.349-0.538,0.349-0.917c0-0.363-0.101-0.658-0.301-0.886
		c-0.2-0.227-0.498-0.364-0.894-0.412c-0.235-0.027-0.911-0.04-2.027-0.04H130.083z M130.083,77.799v3.141h2.196
		c0.854,0,1.396-0.023,1.626-0.071c0.353-0.064,0.64-0.221,0.861-0.469c0.222-0.249,0.333-0.581,0.333-0.998
		c0-0.353-0.086-0.651-0.257-0.897c-0.171-0.245-0.418-0.425-0.741-0.537c-0.323-0.111-1.024-0.168-2.104-0.168H130.083z"/>
	<path style="fill:#FFFFFF;" d="M149.329,82.919h-2.58l-1.025-2.668h-4.695l-0.97,2.668h-2.516l4.575-11.746h2.508L149.329,82.919z
		 M144.963,78.271l-1.619-4.358l-1.586,4.358H144.963z"/>
	<path style="fill:#FFFFFF;" d="M150.596,82.919V71.173h2.371v4.623h4.647v-4.623h2.372v11.746h-2.372v-5.136h-4.647v5.136H150.596z
		"/>
	<path style="fill:#FFFFFF;" d="M162.47,71.173h2.22v7.82l4.76-7.82h2.363v11.746h-2.219v-7.668l-4.752,7.668h-2.372V71.173z"/>
	<path style="fill:#FFFFFF;" d="M174.233,82.919V71.173h8.709v1.986h-6.338v2.604h5.897v1.979h-5.897v3.196h6.563v1.979H174.233z"/>
	<path style="fill:#FFFFFF;" d="M200.329,82.919h-2.58l-1.025-2.668h-4.695l-0.97,2.668h-2.516l4.575-11.746h2.508L200.329,82.919z
		 M195.963,78.271l-1.619-4.358l-1.586,4.358H195.963z"/>
	<path style="fill:#FFFFFF;" d="M201.597,71.173h4.695c0.93,0,1.622,0.038,2.079,0.116c0.457,0.077,0.865,0.238,1.226,0.484
		c0.361,0.246,0.661,0.573,0.901,0.981c0.241,0.409,0.361,0.867,0.361,1.374c0,0.551-0.148,1.056-0.445,1.515
		c-0.296,0.459-0.698,0.804-1.206,1.033c0.716,0.209,1.267,0.564,1.651,1.066c0.384,0.502,0.576,1.092,0.576,1.771
		c0,0.534-0.124,1.054-0.372,1.559c-0.249,0.505-0.588,0.908-1.018,1.21c-0.431,0.302-0.961,0.487-1.591,0.557
		c-0.396,0.043-1.349,0.069-2.86,0.08h-3.998V71.173z M203.968,73.128v2.716h1.555c0.924,0,1.498-0.014,1.723-0.04
		c0.406-0.048,0.726-0.188,0.958-0.421s0.349-0.538,0.349-0.917c0-0.363-0.101-0.658-0.301-0.886
		c-0.2-0.227-0.498-0.364-0.894-0.412c-0.235-0.027-0.911-0.04-2.027-0.04H203.968z M203.968,77.799v3.141h2.196
		c0.854,0,1.396-0.023,1.626-0.071c0.353-0.064,0.64-0.221,0.861-0.469c0.222-0.249,0.333-0.581,0.333-0.998
		c0-0.353-0.086-0.651-0.257-0.897c-0.171-0.245-0.418-0.425-0.741-0.537c-0.323-0.111-1.024-0.168-2.104-0.168H203.968z"/>
	<path style="fill:#FFFFFF;" d="M215.458,82.919v-9.76h-3.485v-1.986h9.335v1.986h-3.478v9.76H215.458z"/>
	<path style="fill:#FFFFFF;" d="M221.947,77.118c0-1.197,0.179-2.201,0.537-3.013c0.267-0.599,0.632-1.136,1.094-1.611
		c0.462-0.475,0.968-0.827,1.519-1.058c0.731-0.31,1.575-0.465,2.532-0.465c1.73,0,3.115,0.537,4.154,1.611
		c1.039,1.073,1.559,2.566,1.559,4.479c0,1.896-0.516,3.38-1.547,4.451s-2.409,1.606-4.135,1.606c-1.746,0-3.136-0.533-4.166-1.599
		C222.463,80.455,221.947,78.987,221.947,77.118z M224.392,77.038c0,1.33,0.307,2.338,0.921,3.024s1.395,1.029,2.34,1.029
		s1.722-0.34,2.328-1.021c0.605-0.681,0.909-1.702,0.909-3.064c0-1.347-0.295-2.351-0.886-3.013
		c-0.59-0.662-1.374-0.994-2.352-0.994s-1.766,0.336-2.363,1.006C224.69,74.676,224.392,75.687,224.392,77.038z"/>
</g>
</svg>
