<svg width="100" height="100" viewBox="0 0 100 100" fill="none" xmlns="http://www.w3.org/2000/svg">
<path d="M17.5471 39.8117C17.5471 39.8117 38.8679 42.6418 45.0943 48.8683C74.7169 15.8494 98.3018 13.7739 98.3018 13.7739C98.3018 13.7739 65.283 34.7173 46.2264 83.5852C39.2452 49.4343 17.5471 39.8117 17.5471 39.8117Z" fill="#96AC10"/>
<path d="M93.7691 25.817L88.3306 30.04C88.5423 30.4457 88.7483 30.8543 88.9472 31.2668C91.774 37.1321 93.2076 43.4351 93.2076 50C93.2076 73.8249 73.8249 93.2076 50 93.2076C26.1751 93.2076 6.79245 73.8249 6.79245 50C6.79245 26.1751 26.1751 6.79245 50 6.79245C59.3091 6.79245 68.1755 9.70604 75.6396 15.2185C75.9415 15.4415 76.2385 15.6698 76.5343 15.9004L82.0472 11.6196C81.2751 10.9743 80.4842 10.3521 79.6747 9.75434C71.0336 3.37283 60.7721 0 50 0C22.4298 0 0 22.4298 0 50C0 77.5702 22.4298 100 50 100C77.5702 100 100 77.5702 100 50C100 42.4057 98.34 35.1106 95.066 28.3174C94.6585 27.4717 94.2242 26.6385 93.7691 25.817Z" fill="#96AC10"/>
</svg>
